<svg xmlns="http://www.w3.org/2000/svg" width="1200" height="700" viewBox="0 0 1200 700" role="img" aria-label="Panel web BOE">
  <rect width="1200" height="700" fill="#0b0f1a"/>
  <rect x="32" y="32" width="1136" height="636" rx="24" fill="#121829"/>
  <text x="72" y="92" fill="#e2e8f0" font-size="28" font-family="Arial, sans-serif">Panel de descarga BOE</text>
  <text x="72" y="122" fill="#94a3b8" font-size="14" font-family="Arial, sans-serif">Actualizacion en vivo del progreso y metricas</text>
  <rect x="72" y="142" width="90" height="24" rx="12" fill="#16253b"/>
  <text x="84" y="159" fill="#38bdf8" font-size="12" font-family="Arial, sans-serif">En vivo</text>

  <g>
    <rect x="72" y="190" width="320" height="150" rx="16" fill="#1a2336"/>
    <text x="96" y="220" fill="#94a3b8" font-size="12" font-family="Arial, sans-serif" letter-spacing="1">PROGRESO TOTAL</text>
    <text x="96" y="255" fill="#e2e8f0" font-size="24" font-family="Arial, sans-serif">120 / 170</text>
    <rect x="96" y="275" width="260" height="12" rx="6" fill="#25314a"/>
    <rect x="96" y="275" width="190" height="12" rx="6" fill="#10b981"/>
    <text x="96" y="310" fill="#94a3b8" font-size="12" font-family="Arial, sans-serif">71%   OK: 120</text>
  </g>

  <g>
    <rect x="424" y="190" width="320" height="150" rx="16" fill="#1a2336"/>
    <text x="448" y="220" fill="#94a3b8" font-size="12" font-family="Arial, sans-serif" letter-spacing="1">DESCARGAS</text>
    <text x="448" y="255" fill="#e2e8f0" font-size="24" font-family="Arial, sans-serif">128.4 MB</text>
    <text x="448" y="280" fill="#94a3b8" font-size="12" font-family="Arial, sans-serif">XML: 80   PDF: 80</text>
    <text x="448" y="312" fill="#e2e8f0" font-size="14" font-family="Arial, sans-serif"><tspan font-weight="bold">XML descargados</tspan> 80</text>
    <text x="448" y="336" fill="#e2e8f0" font-size="14" font-family="Arial, sans-serif"><tspan font-weight="bold">PDF descargados</tspan> 80</text>
  </g>

  <g>
    <rect x="776" y="190" width="320" height="150" rx="16" fill="#1a2336"/>
    <text x="800" y="220" fill="#94a3b8" font-size="12" font-family="Arial, sans-serif" letter-spacing="1">ERRORES</text>
    <rect x="800" y="240" width="40" height="70" fill="#f59e0b"/>
    <rect x="860" y="265" width="40" height="45" fill="#38bdf8"/>
    <rect x="920" y="285" width="40" height="25" fill="#ef4444"/>
    <rect x="800" y="325" width="10" height="10" fill="#f59e0b"/>
    <text x="816" y="334" fill="#94a3b8" font-size="12" font-family="Arial, sans-serif">Timeouts</text>
    <rect x="880" y="325" width="10" height="10" fill="#38bdf8"/>
    <text x="896" y="334" fill="#94a3b8" font-size="12" font-family="Arial, sans-serif">Cliente</text>
    <rect x="950" y="325" width="10" height="10" fill="#ef4444"/>
    <text x="966" y="334" fill="#94a3b8" font-size="12" font-family="Arial, sans-serif">Otros</text>
  </g>

  <g>
    <rect x="72" y="370" width="512" height="240" rx="16" fill="#1a2336"/>
    <text x="96" y="400" fill="#94a3b8" font-size="12" font-family="Arial, sans-serif" letter-spacing="1">ESTADO HTTP</text>
    <rect x="120" y="450" width="50" height="120" fill="#22c55e"/>
    <rect x="200" y="490" width="50" height="80" fill="#38bdf8"/>
    <rect x="280" y="520" width="50" height="50" fill="#f59e0b"/>
    <rect x="360" y="545" width="50" height="25" fill="#ef4444"/>
    <text x="120" y="430" fill="#94a3b8" font-size="12" font-family="Arial, sans-serif">2xx</text>
    <text x="200" y="430" fill="#94a3b8" font-size="12" font-family="Arial, sans-serif">3xx</text>
    <text x="280" y="430" fill="#94a3b8" font-size="12" font-family="Arial, sans-serif">4xx</text>
    <text x="360" y="430" fill="#94a3b8" font-size="12" font-family="Arial, sans-serif">5xx</text>
  </g>

  <g>
    <rect x="616" y="370" width="480" height="240" rx="16" fill="#1a2336"/>
    <text x="640" y="400" fill="#94a3b8" font-size="12" font-family="Arial, sans-serif" letter-spacing="1">METRICAS</text>
    <text x="640" y="440" fill="#e2e8f0" font-size="16" font-family="Arial, sans-serif">HTTP 200 OK: 170</text>
    <text x="640" y="470" fill="#e2e8f0" font-size="16" font-family="Arial, sans-serif">Bytes descargados: 0 B</text>
    <text x="640" y="500" fill="#e2e8f0" font-size="16" font-family="Arial, sans-serif">XML OK: 85</text>
    <text x="640" y="530" fill="#e2e8f0" font-size="16" font-family="Arial, sans-serif">PDF OK: 85</text>
    <text x="640" y="560" fill="#e2e8f0" font-size="16" font-family="Arial, sans-serif">Concurrentes: 10</text>
  </g>
</svg>
