<svg xmlns="http://www.w3.org/2000/svg" width="1200" height="700" viewBox="0 0 1200 700" role="img" aria-label="Panel web BOE">
  <rect width="1200" height="700" fill="#0b0f1a"/>
  <rect x="32" y="32" width="1136" height="636" rx="24" fill="#121829"/>

  <text x="72" y="92" fill="#e2e8f0" font-size="28" font-family="Arial, sans-serif">Panel de descarga BOE</text>
  <text x="72" y="122" fill="#94a3b8" font-size="14" font-family="Arial, sans-serif">Actualizacion en vivo del progreso y metricas</text>
  <rect x="72" y="142" width="90" height="24" rx="12" fill="#16253b"/>
  <text x="84" y="159" fill="#38bdf8" font-size="12" font-family="Arial, sans-serif">En vivo</text>

  <g>
    <rect x="72" y="172" width="54" height="20" rx="10" fill="#1b2a44"/>
    <text x="88" y="186" fill="#38bdf8" font-size="11" font-family="Arial, sans-serif">RUN</text>
    <text x="134" y="186" fill="#e2e8f0" font-size="14" font-family="Arial, sans-serif">2026-01-10-001</text>

    <rect x="290" y="172" width="54" height="20" rx="10" fill="#1b2a44"/>
    <text x="305" y="186" fill="#38bdf8" font-size="11" font-family="Arial, sans-serif">CMD</text>
    <text x="352" y="186" fill="#e2e8f0" font-size="14" font-family="Arial, sans-serif">consolidada</text>

    <rect x="520" y="172" width="74" height="20" rx="10" fill="#11334f"/>
    <text x="534" y="186" fill="#7dd3fc" font-size="11" font-family="Arial, sans-serif">ESTADO</text>
    <text x="602" y="186" fill="#e2e8f0" font-size="14" font-family="Arial, sans-serif">DONE</text>

    <rect x="720" y="172" width="98" height="20" rx="10" fill="#1b2a44"/>
    <text x="732" y="186" fill="#38bdf8" font-size="11" font-family="Arial, sans-serif">ACTUALIZADO</text>
    <text x="828" y="186" fill="#e2e8f0" font-size="14" font-family="Arial, sans-serif">10:42:18</text>
  </g>

  <g>
    <rect x="72" y="210" width="320" height="150" rx="16" fill="#1a2336"/>
    <text x="96" y="240" fill="#94a3b8" font-size="12" font-family="Arial, sans-serif" letter-spacing="1">PROGRESO TOTAL</text>
    <text x="96" y="275" fill="#e2e8f0" font-size="24" font-family="Arial, sans-serif">218 / 218</text>
    <rect x="96" y="295" width="260" height="12" rx="6" fill="#25314a"/>
    <rect x="96" y="295" width="260" height="12" rx="6" fill="#10b981"/>
    <text x="96" y="330" fill="#94a3b8" font-size="12" font-family="Arial, sans-serif">100%   OK: 218</text>
  </g>

  <g>
    <rect x="424" y="210" width="320" height="150" rx="16" fill="#1a2336"/>
    <text x="448" y="240" fill="#94a3b8" font-size="12" font-family="Arial, sans-serif" letter-spacing="1">DESCARGAS</text>
    <text x="448" y="275" fill="#e2e8f0" font-size="24" font-family="Arial, sans-serif">128.4 MB</text>
    <text x="448" y="300" fill="#94a3b8" font-size="12" font-family="Arial, sans-serif">XML: 218   PDF: 0</text>
    <text x="448" y="332" fill="#e2e8f0" font-size="14" font-family="Arial, sans-serif"><tspan font-weight="bold">XML descargados</tspan> 218</text>
    <text x="448" y="356" fill="#e2e8f0" font-size="14" font-family="Arial, sans-serif"><tspan font-weight="bold">PDF descargados</tspan> 0</text>
  </g>

  <g>
    <rect x="776" y="210" width="320" height="150" rx="16" fill="#1a2336"/>
    <text x="800" y="240" fill="#94a3b8" font-size="12" font-family="Arial, sans-serif" letter-spacing="1">ERRORES</text>
    <rect x="810" y="270" width="40" height="70" fill="#f59e0b"/>
    <rect x="870" y="290" width="40" height="50" fill="#38bdf8"/>
    <rect x="930" y="310" width="40" height="30" fill="#ef4444"/>
    <text x="812" y="360" fill="#94a3b8" font-size="12" font-family="Arial, sans-serif">12</text>
    <text x="872" y="360" fill="#94a3b8" font-size="12" font-family="Arial, sans-serif">5</text>
    <text x="934" y="360" fill="#94a3b8" font-size="12" font-family="Arial, sans-serif">2</text>
    <rect x="800" y="368" width="10" height="10" fill="#f59e0b"/>
    <text x="816" y="376" fill="#94a3b8" font-size="12" font-family="Arial, sans-serif">Timeouts</text>
    <rect x="880" y="368" width="10" height="10" fill="#38bdf8"/>
    <text x="896" y="376" fill="#94a3b8" font-size="12" font-family="Arial, sans-serif">Cliente</text>
    <rect x="950" y="368" width="10" height="10" fill="#ef4444"/>
    <text x="966" y="376" fill="#94a3b8" font-size="12" font-family="Arial, sans-serif">Otros</text>
  </g>

  <g>
    <rect x="72" y="390" width="512" height="240" rx="16" fill="#1a2336"/>
    <text x="96" y="420" fill="#94a3b8" font-size="12" font-family="Arial, sans-serif" letter-spacing="1">ESTADO HTTP</text>
    <rect x="120" y="490" width="50" height="120" fill="#22c55e"/>
    <rect x="200" y="520" width="50" height="90" fill="#38bdf8"/>
    <rect x="280" y="550" width="50" height="60" fill="#f59e0b"/>
    <rect x="360" y="575" width="50" height="35" fill="#ef4444"/>
    <text x="120" y="455" fill="#94a3b8" font-size="12" font-family="Arial, sans-serif">2xx</text>
    <text x="200" y="455" fill="#94a3b8" font-size="12" font-family="Arial, sans-serif">3xx</text>
    <text x="280" y="455" fill="#94a3b8" font-size="12" font-family="Arial, sans-serif">4xx</text>
    <text x="360" y="455" fill="#94a3b8" font-size="12" font-family="Arial, sans-serif">5xx</text>
    <text x="120" y="625" fill="#94a3b8" font-size="12" font-family="Arial, sans-serif">218</text>
    <text x="200" y="625" fill="#94a3b8" font-size="12" font-family="Arial, sans-serif">0</text>
    <text x="280" y="625" fill="#94a3b8" font-size="12" font-family="Arial, sans-serif">0</text>
    <text x="360" y="625" fill="#94a3b8" font-size="12" font-family="Arial, sans-serif">0</text>
  </g>

  <g>
    <rect x="616" y="390" width="480" height="240" rx="16" fill="#1a2336"/>
    <text x="640" y="420" fill="#94a3b8" font-size="12" font-family="Arial, sans-serif" letter-spacing="1">METRICAS</text>
    <text x="640" y="444" fill="#e2e8f0" font-size="12" font-family="Arial, sans-serif">Completados: 218</text>
    <text x="640" y="462" fill="#e2e8f0" font-size="12" font-family="Arial, sans-serif">OK: 218</text>
    <text x="640" y="480" fill="#e2e8f0" font-size="12" font-family="Arial, sans-serif">Skipped 304: 0</text>
    <text x="640" y="498" fill="#e2e8f0" font-size="12" font-family="Arial, sans-serif">Errores: 0</text>
    <text x="640" y="516" fill="#e2e8f0" font-size="12" font-family="Arial, sans-serif">Errores detectados: NO</text>
    <text x="640" y="534" fill="#e2e8f0" font-size="12" font-family="Arial, sans-serif">HTTP 429: 0</text>
    <text x="640" y="552" fill="#e2e8f0" font-size="12" font-family="Arial, sans-serif">HTTP 5xx: 0</text>
    <text x="640" y="570" fill="#e2e8f0" font-size="12" font-family="Arial, sans-serif">Bytes descargados: 128.4 MB</text>
    <text x="640" y="588" fill="#e2e8f0" font-size="12" font-family="Arial, sans-serif">XML OK: 218</text>
    <text x="640" y="606" fill="#e2e8f0" font-size="12" font-family="Arial, sans-serif">PDF OK: 0</text>
    <text x="640" y="624" fill="#e2e8f0" font-size="12" font-family="Arial, sans-serif">Concurrentes: 10</text>
    <text x="640" y="642" fill="#e2e8f0" font-size="12" font-family="Arial, sans-serif">Max concurrencia cfg: 25</text>
    <text x="640" y="660" fill="#e2e8f0" font-size="12" font-family="Arial, sans-serif">Max concurrencia: 14</text>
  </g>
</svg>
